<?xml version="1.0" encoding="UTF-8"?><svg id="S-new" xmlns="http://www.w3.org/2000/svg" xmlns:xlink="http://www.w3.org/1999/xlink" viewBox="0 0 1080 1080"><defs><style>.cls-1{fill:url(#LogoGradientSwatch-3);}.cls-2{fill:url(#LogoGradientSwatch-2);}.cls-3{fill:url(#LogoGradientSwatch);}</style><linearGradient id="LogoGradientSwatch" x1="240.3" y1="541.16" x2="838.67" y2="541.16" gradientUnits="userSpaceOnUse"><stop offset="0" stop-color="#0c3538"/><stop offset=".95" stop-color="#208089"/></linearGradient><linearGradient id="LogoGradientSwatch-2" x1="454" y1="310.5" x2="689.69" y2="310.5" xlink:href="#LogoGradientSwatch"/><linearGradient id="LogoGradientSwatch-3" x1="349.83" y1="666.52" x2="514.39" y2="666.52" xlink:href="#LogoGradientSwatch"/></defs><path class="cls-3" d="M699.38,213.02c.17-4.2-38.2-12.17-74-9-6.3,.56-18.94,2.03-34,5-8.8,1.74-17.65,3.83-29,7-6.09,1.7-29.41,8.31-70,24-23.77,9.18-35.98,13.94-52,22-4.07,2.05-18.7,9.49-37,21-14.48,9.11-21.72,13.66-30,21-7.8,6.92-23.74,21.35-28,40-.58,2.53-1.77,7.95-1,15,.18,1.69,1,8.29,5,16,2.55,4.92,6.46,10.43,13,16,12.3,10.47,28.66,18.97,52,27,7.51,2.58,17.78,5.42,38,11,3.95,1.09,25.05,6.9,41,11,46.39,11.93,66.66,13.84,116,26,21.86,5.39,57.68,14.63,95,29,15.16,5.83,28.1,12.89,54,27,3.68,2,12.04,6.63,21,15,6.16,5.76,12.18,11.5,16,21,4.44,11.06,3.37,20.91,3,24-1.19,9.86-5.61,20.77-22,38-21.08,22.16-42.2,34.01-44,35-66.07,36.4-124,60-124,60-34.63,14.11-62.52,25.4-102,38-37.47,11.96-64.19,18.32-88,24-25.12,5.99-41.14,9.06-60,11-4.53,.47-21.71,3.07-43,2,0,0-10.48-.53-24-4-11.78-3.03-15.97-5.76-19-9-1.17-1.25-4.67-5.09-6-11-1.25-5.55-.13-10.91,4-20,6.45-14.19,14.05-23.81,15-25,16.27-20.34,29-32,29-32,31.2-28.58,60.16-49.27,64-52,25.56-18.15,35.78-23.74,62-41,0,0,23.48-14.94,81-57,3.81-2.79,12.87-9.46,12-11-.41-.72-2.93-.24-12,3-13.03,4.65-22.71,8.98-25,10-22.44,10.02-20.27,8.76-27,12-5.67,2.73-10.47,5.2-23,12-20.4,11.07-30.6,16.6-38,21-19,11.3-32.89,21.12-44,29-9.33,6.62-19.24,13.65-32,24-17,13.78-28.72,25.06-39,35-17.21,16.64-26,25.22-35,38-9.51,13.49-13.73,23.26-16,33-2.4,10.27-2.13,18.4-2,21,.63,12.58,4.39,21.77,7,28,2.09,4.99,5.81,12.72,12,21,2.05,2.75,11.48,15.07,32,28,17.61,11.1,32.74,15.93,49,21,21.59,6.73,38.63,9.32,50,11,12.43,1.84,32.34,4.14,57,4,22.19-.12,38.62-2.16,53-4,17.63-2.25,41.3-5.37,71-14,23.2-6.74,39.62-13.8,61-23,18.27-7.86,33.88-14.57,54-26,29.35-16.67,49.42-32.65,56-38,10.27-8.36,25.3-20.71,42-40,13.34-15.41,21.97-28.57,26-35,5.92-9.43,11.64-18.55,17-32,7.58-19,9.57-34.43,10-38,1.12-9.29,2.64-22.94-1-40-2.68-12.53-7.07-21.87-10-28-1.71-3.59-5.95-12.06-13-22-2.72-3.83-9.1-12.45-19-22-2.4-2.32-8.78-8.33-18-15-2.21-1.6-12.47-8.95-29-17-7.51-3.66-15.67-6.77-32-13-15.07-5.75-22.6-8.62-33-12-11.94-3.88-20.83-6.25-35-10-17.33-4.59-30.49-7.7-36-9-71.03-16.79-60.7-14.64-80-19-19.99-4.52-38.65-8.53-70-16,0,0-25.15-5.99-53-18-1.08-.46-9.05-5.31-25-15-2.2-1.34-8.46-5.24-12-12-1.57-3.01-1.95-5.31-2-7-.11-3.45,1.06-6.16,2-8,4.55-8.91,13.52-16.73,15-18,11.01-9.47,16.52-14.21,19-16,19.65-14.19,37.63-23.31,41-25,32.27-16.2,59.74-25.84,89-36,25.51-8.86,43-13.86,47-15,12.71-3.63,30.4-8.69,52-13,43.13-8.6,64.87-6.84,65-10Z"/><path class="cls-2" d="M455.5,406c-.13-6.74-.15-13.49,.48-20.25,.49-3.39,1.32-6.67,2.37-9.91,1.07-3.23,2.38-6.37,3.76-9.45,2.83-6.13,5.65-12.26,8.87-18.24,3.21-5.97,6.85-11.73,10.87-17.21,2.01-2.74,4.12-5.41,6.35-7.99,2.23-2.58,4.57-5.04,6.93-7.46,4.74-4.81,9.49-9.61,14.46-14.23,9.92-9.24,20.5-17.69,31.33-25.8,10.87-8.06,22.24-15.49,34-22.18,5.88-3.35,11.87-6.49,17.91-9.53,6.04-3.04,12.2-5.87,18.46-8.46,12.5-5.2,25.34-9.54,38.39-13.04,6.54-1.71,13.14-3.18,19.78-4.39,6.64-1.23,13.32-2.18,20.03-2.88-13.33,2.05-26.53,4.81-39.42,8.68-12.91,3.76-25.59,8.33-37.88,13.74-12.27,5.44-24.24,11.6-35.86,18.33-11.64,6.72-22.87,14.08-33.63,22.12-10.78,8.01-21.31,16.4-31.19,25.47-4.96,4.51-9.75,9.24-14.52,13.98-4.75,4.75-9.26,9.66-13.3,14.99-4.06,5.31-7.77,10.9-11.06,16.74-3.3,5.82-6.23,11.91-9.2,17.94-1.47,3.02-2.87,6.07-4.02,9.2-1.14,3.13-2.07,6.38-2.65,9.65-.46,3.31-.67,6.68-.86,10.04-.2,3.36-.33,6.73-.4,10.1Z"/><path class="cls-1" d="M513.38,545.02c-8.92,8.84-17.96,17.54-26.93,26.3-4.53,4.33-9.01,8.73-13.48,13.14-4.47,4.4-8.93,8.81-13.34,13.26-4.41,4.45-8.75,8.96-13,13.54-4.25,4.59-8.4,9.28-12.46,14.04-8.14,9.51-16.01,19.25-23.55,29.24-7.6,9.95-14.84,20.16-21.78,30.58-6.96,10.4-13.63,21.01-19.76,31.9-3.04,5.46-5.88,11.02-8.42,16.73-2.55,5.7-4.89,11.5-6.61,17.48-.86,2.98-1.56,6.02-1.92,9.09-.35,3.08-.41,6.21-.26,9.32,.3,6.23,1.52,12.42,3.51,18.37-1.15-2.92-2.09-5.93-2.83-8.99-.71-3.07-1.22-6.19-1.47-9.33-.26-3.15-.31-6.31-.07-9.48,.25-3.17,.86-6.3,1.63-9.37,1.6-6.13,3.85-12.04,6.29-17.85,2.43-5.81,5.18-11.5,8.13-17.07,5.89-11.15,12.57-21.82,19.42-32.37,6.9-10.51,14.17-20.8,21.76-30.82,15.27-19.97,31.6-39.23,49.79-56.64,4.52-4.37,9.08-8.68,13.64-12.99,4.56-4.31,9.12-8.62,13.78-12.83,9.32-8.42,18.57-16.9,27.94-25.25Z"/></svg>