<?xml version="1.0" encoding="UTF-8"?><svg id="S-new" xmlns="http://www.w3.org/2000/svg" viewBox="0 0 1080 1080"><defs><style>.cls-1{fill:#f8f8f8;}</style></defs><path class="cls-1" d="M672.38,203.02c.17-4.2-38.2-12.17-74-9-6.3,.56-18.94,2.03-34,5-8.8,1.74-17.65,3.83-29,7-6.09,1.7-29.41,8.31-70,24-23.77,9.18-35.98,13.94-52,22-4.07,2.05-18.7,9.49-37,21-14.48,9.11-21.72,13.66-30,21-7.8,6.92-23.74,21.35-28,40-.58,2.53-1.77,7.95-1,15,.18,1.69,1,8.29,5,16,2.55,4.92,6.46,10.43,13,16,12.3,10.47,28.66,18.97,52,27,7.51,2.58,17.78,5.42,38,11,3.95,1.09,25.05,6.9,41,11,46.39,11.93,66.66,13.84,116,26,21.86,5.39,57.68,14.63,95,29,15.16,5.83,28.1,12.89,54,27,3.68,2,12.04,6.63,21,15,6.16,5.76,12.18,11.5,16,21,4.44,11.06,3.37,20.91,3,24-1.19,9.86-5.61,20.77-22,38-21.08,22.16-42.2,34.01-44,35-66.07,36.4-124,60-124,60-34.63,14.11-62.52,25.4-102,38-37.47,11.96-64.19,18.32-88,24-25.12,5.99-41.14,9.06-60,11-4.53,.47-21.71,3.07-43,2,0,0-10.48-.53-24-4-11.78-3.03-15.97-5.76-19-9-1.17-1.25-4.67-5.09-6-11-1.25-5.55-.13-10.91,4-20,6.45-14.19,14.05-23.81,15-25,16.27-20.34,29-32,29-32,31.2-28.58,60.16-49.27,64-52,25.56-18.15,35.78-23.74,62-41,0,0,23.48-14.94,81-57,3.81-2.79,12.87-9.46,12-11-.41-.72-2.93-.24-12,3-13.03,4.65-22.71,8.98-25,10-22.44,10.02-20.27,8.76-27,12-5.67,2.73-10.47,5.2-23,12-20.4,11.07-30.6,16.6-38,21-19,11.3-32.89,21.12-44,29-9.33,6.62-19.24,13.65-32,24-17,13.78-28.72,25.06-39,35-17.21,16.64-26,25.22-35,38-9.51,13.49-13.73,23.26-16,33-2.4,10.27-2.13,18.4-2,21,.63,12.58,4.39,21.77,7,28,2.09,4.99,5.81,12.72,12,21,2.05,2.75,11.48,15.07,32,28,17.61,11.1,32.74,15.93,49,21,21.59,6.73,38.63,9.32,50,11,12.43,1.84,32.34,4.14,57,4,22.19-.12,38.62-2.16,53-4,17.63-2.25,41.3-5.37,71-14,23.2-6.74,39.62-13.8,61-23,18.27-7.86,33.88-14.57,54-26,29.35-16.67,49.42-32.65,56-38,10.27-8.36,25.3-20.71,42-40,13.34-15.41,21.97-28.57,26-35,5.92-9.43,11.64-18.55,17-32,7.58-19,9.57-34.43,10-38,1.12-9.29,2.64-22.94-1-40-2.68-12.53-7.07-21.87-10-28-1.71-3.59-5.95-12.06-13-22-2.72-3.83-9.1-12.45-19-22-2.4-2.32-8.78-8.33-18-15-2.21-1.6-12.47-8.95-29-17-7.51-3.66-15.67-6.77-32-13-15.07-5.75-22.6-8.62-33-12-11.94-3.88-20.83-6.25-35-10-17.33-4.59-30.49-7.7-36-9-71.03-16.79-60.7-14.64-80-19-19.99-4.52-38.65-8.53-70-16,0,0-25.15-5.99-53-18-1.08-.46-9.05-5.31-25-15-2.2-1.34-8.46-5.24-12-12-1.57-3.01-1.95-5.31-2-7-.11-3.45,1.06-6.16,2-8,4.55-8.91,13.52-16.73,15-18,11.01-9.47,16.52-14.21,19-16,19.65-14.19,37.63-23.31,41-25,32.27-16.2,59.74-25.84,89-36,25.51-8.86,43-13.86,47-15,12.71-3.63,30.4-8.69,52-13,43.13-8.6,64.87-6.84,65-10Z"/><path class="cls-1" d="M428.5,396c-.13-6.74-.15-13.49,.48-20.25,.97-6.75,3.34-13.19,6.13-19.37,2.83-6.13,5.65-12.26,8.87-18.24,6.42-11.96,14.54-23.06,24.15-32.66,28.19-29.19,61.33-53.71,97.7-71.74,30.23-15.06,63.04-25.28,96.66-28.76-40.01,5.88-78.35,20.37-113.16,40.75-29.03,16.87-55.73,37.72-79.34,61.58-9.57,9.4-17.79,20.03-24.36,31.73-3.3,5.82-6.23,11.91-9.2,17.94-2.96,6-5.5,12.26-6.67,18.85-.84,6.65-1.08,13.43-1.27,20.14h0Z"/><path class="cls-1" d="M486.38,535.02c-22.24,22.1-45.32,43.36-66.75,66.24-21.13,23.07-40.41,47.85-57.79,73.86-10.34,15.65-20.48,31.51-28.17,48.63-3.75,8.53-7.33,17.29-8.53,26.57-1,9.32,.28,18.8,3.25,27.69-3.47-8.8-5.05-18.35-4.38-27.8,.83-9.49,4.31-18.51,7.92-27.22,7.32-17.44,17.29-33.63,27.54-49.44,20.81-31.44,44.4-61.23,71.55-87.47,18.04-17.46,36.66-34.32,55.36-51.07h0Z"/></svg>