<?xml version="1.0" encoding="UTF-8" standalone="no"?>
<svg
   version="1.1"
   id="svg2"
   xml:space="preserve"
   width="582.20001"
   height="339.65332"
   viewBox="0 0 582.20001 339.65332"
   sodipodi:docname="BT_logo- Icon - COLOR.svg"
   inkscape:version="1.1.1 (c3084ef, 2021-09-22)"
   xmlns:inkscape="http://www.inkscape.org/namespaces/inkscape"
   xmlns:sodipodi="http://sodipodi.sourceforge.net/DTD/sodipodi-0.dtd"
   xmlns="http://www.w3.org/2000/svg"
   xmlns:svg="http://www.w3.org/2000/svg"
   xmlns:rdf="http://www.w3.org/1999/02/22-rdf-syntax-ns#"
   xmlns:cc="http://creativecommons.org/ns#"
   xmlns:dc="http://purl.org/dc/elements/1.1/"><metadata
     id="metadata8"><rdf:RDF><cc:Work
         rdf:about=""><dc:format>image/svg+xml</dc:format><dc:type
           rdf:resource="http://purl.org/dc/dcmitype/StillImage" /></cc:Work></rdf:RDF></metadata><defs
     id="defs6" /><sodipodi:namedview
     pagecolor="#ffffff"
     bordercolor="#666666"
     borderopacity="1"
     objecttolerance="10"
     gridtolerance="10"
     guidetolerance="10"
     inkscape:pageopacity="0"
     inkscape:pageshadow="2"
     inkscape:window-width="1628"
     inkscape:window-height="883"
     id="namedview4"
     inkscape:pagecheckerboard="0"
     showgrid="false"
     inkscape:zoom="1.2864995"
     inkscape:cx="291.10001"
     inkscape:cy="169.84072"
     inkscape:window-x="0"
     inkscape:window-y="25"
     inkscape:window-maximized="0"
     inkscape:current-layer="g10" /><g
     id="g10"
     inkscape:groupmode="layer"
     inkscape:label="ink_ext_XXXXXX"
     transform="matrix(1.3333333,0,0,-1.3333333,0,339.65333)"><g
       id="g12"
       transform="scale(0.1)"><g
         id="g14"
         transform="scale(10)"><text
           transform="matrix(1,0,0,-1,114.087,78.3078)"
           style="font-variant:normal;font-weight:normal;font-size:28px;font-family:Kefa;-inkscape-font-specification:Kefa-Regular;writing-mode:lr-tb;fill:#1c6434;fill-opacity:1;fill-rule:nonzero;stroke:none"
           id="text20"><tspan
             x="0 23.122999 36.744102 52.716789 63.261684 77.128883 84.966774 91.723618 111.83881 125.45992 139.3271 147.16498 157.70987 173.43648 180.19431 196.3447 210.69038 225.5556 241.52829 253.79488 267.41599 275.25388 283.16013 299.13281"
             y="0"
             sodipodi:role="line"
             id="tspan16">Mental Health Counseling</tspan><tspan
             x="81.064102 98.144203 112.4899 127.6559 143.38199 151.28825 158.04607 171.9133 183.15549 196.77657"
             y="-30.981199"
             sodipodi:role="line"
             id="tspan18">Bodhi Tree</tspan></text></g><path
         d="m 720.59,382.48 c 14.558,8.02 21.89,21.532 30.609,33.668 1.891,2.633 2.414,6.864 2.192,10.262 -0.469,7.121 -1.969,14.149 -2.828,21.238 -0.469,3.903 -1.543,8.133 -0.543,11.711 5.113,18.231 4.011,38.262 15.632,54.621 0.672,0.942 1.008,2.18 1.289,3.34 3.524,14.711 13.364,26.059 20.594,38.809 7.059,12.43 14.141,24.883 20.422,37.711 3.016,6.16 3.063,13.16 -0.543,19.609 -2.281,4.09 -4.519,8.192 -7.711,13.973 -1.367,-4.883 -2.933,-8.422 -3.269,-12.094 -0.95,-10.289 -5.524,-18.808 -11.008,-27.367 -18.047,-28.18 -35.801,-56.551 -53.231,-85.121 -9.57,-15.68 -13.668,-33.078 -12.961,-51.461 0.813,-21.059 3.688,-42.117 -1.421,-63.078 -0.383,-1.582 1.75,-3.789 2.777,-5.821 z m 51.844,-139.371 c -15.219,-9.019 -29.079,-18.437 -35.844,-34.66 -1.66,-3.98 -3.664,-8 -4.332,-12.187 -2.266,-14.203 -3.613,-28.543 -6.11,-42.684 -1.222,-6.988 -3.621,-13.906 -6.492,-20.406 -4.652,-10.531 -12.093,-13.961 -23.293,-11.953 -6.41,1.16 -9.625,5.769 -11.09,11.32 -4.476,16.961 -5.226,33.652 2.274,50.359 7.488,16.692 14.281,33.743 20.437,50.973 5.149,14.41 13.493,26.899 21.27,39.789 1.031,1.699 16.883,18.899 28.121,15.219 1.035,-0.34 2.336,0.109 3.09,0.16 3.57,4.672 15.988,23.32 12.918,28.602 -6.059,10.429 -10.563,21.238 -10.192,34.57 -3.785,-1.172 -6.246,-1.379 -8.003,-2.59 -5.04,-3.48 -10.43,-4.652 -16.481,-5.789 -12.992,-2.453 -23.016,-10.434 -29.684,-22.152 -6.707,-11.789 -13.535,-23.508 -20.066,-35.41 -7.125,-12.969 -15.769,-23.879 -31.273,-27.438 -4.59,-1.051 -25.407,-13.062 -29.84,-19.75 -12.5,-18.871 -25.821,-37.551 -44.106,-51.23 -11.988,-8.961 -25.992,-13.864 -41.613,-7.25 -10.48,4.429 -14.555,12.73 -9.594,23 2.055,4.238 23.785,26.168 31.289,33.687 3.043,3.043 14.715,19.793 21.516,20.52 9.445,1.023 17.434,5.863 24.203,12.242 7.547,7.097 14.879,14.508 21.613,22.371 8.684,10.137 16.684,20.848 26.575,33.328 -6.579,-2.949 -11.457,-4.559 -15.711,-7.16 -20.516,-12.559 -42.746,-19.559 -66.707,-20.43 -7.399,-0.269 -14.871,1.539 -21.965,2.36 -1.496,7.171 13.14,15.46 16.597,15.621 17.84,0.828 31.25,11.211 45.133,20.449 13.321,8.879 27.707,13.898 43.766,14.32 15.883,0.422 22.398,30.762 21.656,32.59 -4.754,11.648 -3.277,22.52 3.289,33.129 2.274,3.68 7.004,21.062 3.981,24.531 -4.981,5.711 -5.125,21.719 -6.059,24.942 -2.207,-2.832 -9.453,-17.114 -16.605,-19.133 -9.922,-2.809 -20.094,-5.66 -29.129,-10.438 -11.18,-5.922 -21.176,-14.031 -31.914,-20.832 -14.25,-9.039 -21.993,-22.488 -27.778,-37.82 -4.222,-11.188 -9.633,-21.938 -14.785,-32.75 -2.715,-5.699 -6.82,-8.59 -13.961,-8.981 -11.898,-0.668 -47.851,-8.609 -53.422,-11.539 -11.211,-5.898 -76.234,-7.597 -93.687,5.09 -7.215,5.242 -11.633,11.852 -11.797,21 -0.145,8.071 21.098,14.41 27.355,14.031 13.926,-0.839 27.77,-3.23 41.696,-3.878 20.383,-0.942 40.609,1.007 60.418,6.269 5.879,1.559 17.035,37.461 25.754,47.68 10.308,12.078 21.546,23.531 33.488,33.988 10.125,8.883 21.098,17.41 33.058,23.352 9.735,4.839 21.387,6.257 32.372,7.988 9.988,1.57 17.386,6.031 24.785,12.922 17.125,15.969 30.113,34.98 43.472,53.859 8.289,11.731 17.516,22.789 26.071,34.328 2.828,3.821 5.136,8.09 7.211,12.383 6.777,14.008 13.57,28.027 19.886,42.258 3.059,6.891 5.012,14.262 7.559,21.371 13.773,38.43 24.195,77.832 31.457,117.91 4.184,23.078 5.109,46.781 7.195,70.219 1.848,20.781 5.36,41.109 12.543,60.801 4.91,13.441 9,27.179 13.293,40.84 6.66,21.218 17.856,39.871 30.789,57.83 14.914,20.71 30.149,41.38 42.785,63.49 15.879,27.78 27.086,57.96 35.137,88.9 4.281,16.44 6.586,33.95 6.231,50.91 -0.418,19.95 -4.289,39.74 -17.145,56.69 -10.309,13.57 -32.402,45.45 -34.406,46.55 -12.586,6.92 -25.168,13.86 -37.903,20.5 -12.183,6.34 -24.882,9.88 -39.019,9.54 -7.672,-0.18 -15.457,3.3 -23.148,5.31 -6.868,1.8 -13.665,3.83 -20.817,5.86 -2.43,-4.72 -4.391,-8.51 -6.281,-12.19 1.89,-9.94 7.289,-17.64 14.574,-24.08 3.582,-3.17 4.188,-6.81 2.191,-10.67 -6.996,-13.56 -18.304,-21.91 -34.98,-13.56 -26.059,13.07 -26.738,46.01 -14.242,64.11 1.523,2.21 3.344,4.21 5.914,7.43 -10.742,3.62 -20.277,1.7 -28.465,-2.49 -17.836,-9.15 -29.324,-24.29 -35.039,-43.45 -2.047,-6.87 -0.207,-13.91 4.828,-18.97 6.149,-6.18 12.961,-11.76 19.902,-17.07 14.844,-11.32 19.684,-26.22 17.497,-44.23 -6.02,-3.36 -11.368,-1.28 -16.649,0.21 -14.433,4.08 -26.781,12.15 -38.894,20.62 -3.598,2.52 -7.239,5.01 -10.582,7.86 -19.59,16.64 -24.739,39.46 -14.957,63.32 2.851,6.94 4.57,14.38 6.378,21.71 0.5,1.99 -0.562,4.37 -1.089,7.71 -5.965,-2.24 -11.95,-3.04 -15.973,-6.27 -11.617,-9.35 -25.566,-10.81 -39.231,-13.32 -30.953,-5.68 -61.871,-11.72 -92.98,-16.36 -23.605,-3.51 -47.457,-6.24 -71.277,-7.16 -17.082,-0.65 -34.243,2.44 -49.246,12.25 -14.368,9.41 -27.297,35.25 -25.293,52.94 4.132,-1.06 8.242,-1.74 12.054,-3.18 12.301,-4.64 24.246,-10.38 36.809,-14.1 8.223,-2.43 17.273,-2.91 25.941,-2.82 26.797,0.28 53.41,2.81 79.887,7.23 14.543,2.43 29.32,3.42 43.965,5.31 21.621,2.8 41.683,10.85 61.535,19.26 21.797,9.24 43.891,16.8 67.855,17.47 11.149,0.31 22.309,0.66 33.422,1.55 13.379,1.07 26.289,-1.42 39.086,-4.51 29.035,-7.02 57.871,-14.88 87.008,-21.41 16.387,-3.66 30.984,-10 43.738,-20.85 13.336,-11.35 27.235,-22.08 40.102,-33.93 24.496,-22.55 40.984,-50.73 55.555,-80.36 13.363,-27.18 16.32,-55.35 13.082,-85.11 -1.852,-17.01 -5.985,-32.86 -13.672,-48.01 -12.278,-24.2 -23.973,-48.69 -36.66,-72.66 -10.629,-20.09 -23.067,-39.23 -33.371,-59.48 -11.993,-23.559 -19.317,-48.988 -25.926,-74.539 -2.504,-9.672 -4.254,-19.539 -6.742,-29.211 -8.606,-33.399 -4.7,-67.629 -6.829,-101.461 -2.636,-41.879 -13.285,-216.457 -34.117,-242.109 -3.965,-4.879 -6.765,-10.75 -9.832,-16.321 -3.828,-6.969 -7.832,-13.898 -10.914,-21.211 -3.23,-7.636 -6.812,-15.527 -7.855,-23.609 -2.442,-18.981 -3.711,-38.117 -4.95,-57.219 -0.613,-9.441 -0.105,-18.961 -0.105,-31.648 4.516,3.918 8.012,5.5 9.055,8.078 10.965,27.121 26.953,51.492 41.343,76.73 1.571,2.758 3.364,5.7 5.797,7.59 10.25,8.012 12.649,19.531 12.711,31.11 0.114,20.07 1.5,39.921 5.914,59.48 3.942,17.461 1.231,35.02 1.657,52.539 0.296,12.281 1.382,24.68 3.613,36.75 3.98,21.582 10.109,42.789 13.402,64.449 2.563,16.864 2.949,34.192 2.914,51.313 -0.043,20.347 -2.031,40.679 -2.351,61.039 -0.676,43.051 7.074,84.488 28.484,122.23 17.856,31.469 29.148,65.65 43.574,98.54 5.907,13.47 13.047,26.42 19.778,39.53 13.691,26.66 33.611,68.76 30.761,99.37 -0.58,6.21 0.63,28.19 -2.96,40.81 -1.09,35.73 -31.036,60.9 -44.028,78.04 -19.41,25.6 -62.082,63.56 -69.359,68.36 -25.633,16.88 -62.871,33.04 -89.176,48.84 -13.934,8.36 -35.668,22.96 -50.684,29.32 -20.918,8.86 -46.722,8.07 -68.109,15.71 -20.258,7.25 -41.297,12.34 -61.406,19.94 -35.469,13.38 -38.157,19.91 -73.008,34.81 -23.199,9.91 -50.871,21.34 -69.36,38.53 -4.617,4.29 -31.332,23.79 -37.414,25.62 -27.281,8.21 -48.187,8.87 -39.64,10.71 2.707,0.58 50.219,2.43 52.887,3.16 0.664,0.18 1.152,1 1.992,1.76 -5.059,5.92 -35.782,20.42 -41.68,27.31 5.781,3.14 36.426,-2.84 41.684,0.01 -5.891,18.89 -15.09,35.19 -23.852,52.03 -11.406,21.92 -25.754,43.8 -25.074,70.22 0.25,9.85 1.621,19.88 4.074,29.42 5.563,21.64 12.992,42.68 23.773,62.41 5.293,9.68 11.52,18.08 22.305,22.43 13.903,5.6 25.176,-2.33 23.613,-17.27 -0.492,-4.7 -1.48,-9.52 -3.23,-13.88 -6.273,-15.55 -13.984,-30.6 -19.145,-46.49 -3.488,-10.77 -5.476,-22.75 -4.832,-34 1.254,-21.97 6.243,-43.67 15.45,-63.71 11.996,-26.12 29.195,-48.01 53.742,-64.46 24.402,-16.36 50.687,-28.38 77.437,-39.8 8.078,-3.46 16.121,-6.99 24.223,-10.38 3.641,-1.52 7.445,-3.45 10.687,0.65 0,0.94 0.301,2.14 -0.042,2.37 -14.989,10.14 -15.399,26.54 -16.012,41.64 -0.481,11.7 1.875,24.08 5.719,35.22 3.55,10.3 10.511,19.49 16.46,28.85 2.981,4.68 7.059,8.66 10.649,12.95 8.238,9.85 19.269,13.83 31.625,14.86 5.105,0.42 10.25,0.49 15.684,0.73 2.269,-3.6 -0.071,-6.4 -2.04,-9.38 -2.136,-3.25 -4.746,-6.42 -5.918,-10.03 -4.89,-15.09 -10.109,-30.15 -13.726,-45.57 -5.145,-21.89 2.336,-42.27 8.527,-63.07 6.473,-21.73 19.727,-35.42 39.746,-44.74 8.864,-4.13 15.996,-11.82 24.364,-17.21 6.636,-4.29 14.035,-7.37 20.945,-11.27 14.234,-8.03 29.172,-15.13 42.289,-24.71 106.195,-59.59 82.707,-30.05 164.547,-119.04 72.663,-78.16 68.613,-103.16 75.963,-134.31 6.44,-19.84 1.76,-47.59 -1.31,-68.74 -5.61,-38.6 -16.81,-75.56 -29.57,-112.22 -6.29,-18.08 -22.25,-43.02 -28.12,-61.24 -7.23,-22.411 -18.334,-29.848 -26.869,-51.739 -4.418,-11.332 -26.571,-39.93 -25.02,-189.93 0.149,-29.25 -4.398,-58 -12.531,-86.269 -5.168,-17.981 -9.11,-36.41 -12.262,-54.864 -5.754,-97.878 23.719,-96.039 35.156,-119.32 7.567,-15.398 14.719,-31.027 22.782,-46.168 11.544,-21.672 13.964,-44.57 11.594,-68.578 -3.11,-31.402 0.12,-62.262 10.87,-92.004 2.51,-6.937 6.82,-13.609 11.61,-19.308 17.53,-20.829 18.23,-20.399 48.41,-30.29 18.88,-6.191 37.22,-14.019 56.13,-21.25 0,-5.402 22.07,-9.941 1.62,-115.98 -0.4,-1.949 12.83,-14.4805 16.75,-18.9492 2.75,-3.1524 65.83,-45.8594 69.13,-60.8594 2.39,-10.8711 -14.82,-30.22265 -20.26,-25.800775 C 1151.2,77.4297 1090.68,69.1719 1086.83,111.012 c 10.75,27.187 40.18,39.078 -2.91,87.629 -24.61,24.109 -59.2,10.828 -61.76,20.879 -0.4,1.55 9.9,30.679 -22.441,25.46 -1.977,0.301 -21.938,22.25 -22.61,26.911 -2.375,-3.442 -4.265,-4.961 -4.5,-6.711 -1.273,-9.532 -1.687,-18.961 2.2,-28.25 8.668,-20.731 18.078,-52.039 15.14,-74.18 -1.125,-8.461 -5.719,-44.02 -14.312,-51.738 -0.532,-12.4925 -35.668,-34.0237 -37.407,-33.8909 1.739,-0.1328 -2.14,17.9883 -1.125,23.9809 3.731,22.007 13.801,49.808 18.715,71.558 3.719,16.43 -19.457,60.512 -16.511,73.762 3.023,13.617 -3.118,29 -0.551,42.726 0.359,1.93 10.14,28.793 9.762,41.25 -0.243,7.891 15.628,41.364 12.921,53.133 -2.367,10.309 4.727,44.09 -0.812,51.028 -7.578,-16.481 -14.172,-32.661 -22.313,-48.02 -9.16,-17.301 -13.644,-35.551 -15.726,-54.789 -1.547,-14.289 -3.152,-54.961 -17.41,-63.309 -10.102,3.559 -19.914,39 -19.508,50.598 0.605,17.082 -0.367,34.121 4.101,51.191 6.649,25.418 10.954,51.45 16.497,77.18 0.902,4.16 8.054,19.121 4.214,23.391 -1.879,-1.59 -28.175,-36.992 -41.121,-52.051 -17.269,-20.09 -31.019,-42.512 -45.82,-64.262 -1.109,-1.629 -0.852,-4.418 -0.703,-6.636 0.887,-13.082 1.699,-26.18 3.07,-39.211 0.43,-4.09 1.723,-8.551 4.028,-11.86 5.445,-7.793 11.71,-15.019 17.714,-22.41 1.243,-1.539 2.614,-3.101 4.243,-4.141 13.953,-8.992 34.175,-45.218 35.316,-49.839 4.004,-16.243 6.453,-32.993 11.988,-48.68 5.914,-16.762 4.567,-64.723 4.192,-71.641 -0.821,-0.1286 -29.161,14.578 -33.442,21.942 -4.207,7.238 -3.316,55.039 -6.59,61.179 -6.019,11.278 -13.328,22.899 -13.777,36.481 -0.32,9.668 -3.812,16.66 -12.832,21.137 -7.117,3.543 -13.43,8.703 -20.543,12.25 -6.918,3.453 -9.672,1.632 -10.117,-5.731 -0.817,-13.578 -1.332,-27.156 -2.067,-40.738 -0.304,-5.629 1.25,-9.27 6.805,-12.481 8.93,-5.129 16.707,-12.23 25.262,-18.078 7.73,-5.293 11.129,-12.562 10.465,-21.531 -0.774,-10.43 15.593,-61.3008 7.222,-74.9687 -3.316,-5.4219 -2.433,-13.9297 -2.047,-20.9532 0.375,-6.707 -0.769,-12.5273 -4.234,-18.1562 -3.082,-5.0117 -7.156,-6.9531 -13.094,-6.0508 -13.14,1.9805 -24.218,11.5586 -25.488,24.8008 -1.406,14.6679 -1.055,29.4883 -1.476,44.2501 -0.598,21.277 -1.973,42.297 -15.454,60.359 -4.433,5.938 -9.445,10.41 -16.5,13.199 -14.398,5.692 -17.07,10.961 -13.453,25.969 2.711,11.242 6.219,22.289 9.274,33.449 0.597,2.18 0.765,4.473 1.129,6.711"
         style="fill:#6f1812;fill-opacity:1;fill-rule:nonzero;stroke:none"
         id="path22" /><path
         d="m 1055.22,667.82 c -0.98,-0.601 -1.96,-1.199 -2.94,-1.8 7.99,-18.09 14.87,-36.782 24.31,-54.071 8.32,-15.23 21.8,-26.949 38.12,-32.961 16.21,-5.957 28.36,-15.789 38.44,-29.187 2.34,-3.11 5.35,-5.852 8.49,-8.18 10.74,-7.973 22.65,-12.832 36.18,-14.223 14.65,-1.519 29.16,-4.378 43.8,-5.976 5.96,-0.66 12.01,0.629 13.74,8.476 -8.53,9.25 -16.82,18.391 -25.28,27.383 -12.59,13.36 -28.34,20.301 -46.38,22.578 -9.51,1.2 -19.04,2.403 -28.51,3.879 -16.19,2.532 -30.28,9.711 -42.61,20.332 -17,14.66 -32.44,30.789 -45.56,49.078 -3.65,5.09 -7.85,9.793 -11.8,14.672 z m 93.15,1176.56 c 1.28,0.51 1.82,0.55 1.98,0.81 9.71,16.42 26.37,22.61 42.93,28.41 13.55,4.75 27.67,2.1 41.56,0.83 1.43,-0.13 2.94,-1.33 4.08,-2.39 11.93,-11.18 19.5,-24.03 17.04,-41.33 -1.23,-8.57 -7.25,-12.15 -13.95,-14.83 -5.91,-2.38 -9.61,2.25 -13.19,6.05 -16.06,16.98 -34.6,17.38 -52.77,2.46 -7.94,-6.53 -11.54,-14.35 -14.83,-23.67 -7.24,-20.53 -7.96,-42.3 -13.66,-63.05 -0.53,-1.92 -0.51,-4.01 -1.2,-5.86 -4.98,-13.31 -6.16,-26.95 -3.58,-42.35 7.55,2.13 15.52,3.17 22.33,6.54 15.47,7.67 31.34,7.48 47.87,5.73 30.16,-3.2 60.4,-5.61 90.61,-8.36 4.76,-0.44 9.57,-0.64 14.28,-1.44 25.41,-4.28 48.94,1.12 71.91,12.22 25.96,12.56 50.48,27.35 74.39,43.42 18.91,12.72 39.35,22.82 60.79,30.67 11,4.03 22.51,5.99 34.14,4.56 16.19,-1.97 32.72,-3.3 45.82,-15.04 6.57,-5.88 10.88,-12.73 10.29,-21.81 -0.56,-8.81 -3.69,-11.47 -12.34,-10.25 -3.9,0.54 -7.76,1.85 -11.49,3.2 -4.87,1.77 -9.66,3.8 -14.39,5.94 -20.6,9.29 -41.23,7.41 -61.78,0.05 -26.76,-9.57 -48.88,-26.72 -71.28,-43.54 -11.46,-8.6 -23.48,-16.67 -36.03,-23.55 -15.71,-8.62 -32.17,-15.87 -48.41,-23.52 -12.15,-5.72 -24.78,-8.53 -38.38,-6.13 -17.28,3.05 -34.62,5.71 -51.97,8.29 -5.34,0.79 -11.17,2.54 -15.82,-3.42 1.23,-2.31 2.26,-4.89 3.84,-7.08 7.76,-10.77 9.14,-22.77 7.17,-35.46 -0.43,-2.76 -1.26,-5.45 -1.81,-8.2 -6.56,-33.05 -6.55,-33.07 -32.91,-52.22 -4.46,-3.24 -8.97,-5.86 -11.09,-11.87 -1.24,-3.51 -6.15,-5.71 -9.27,-8.38 -13.45,11.4 -14.54,19.41 -6.04,33.75 5.67,9.58 10.34,19.77 16.16,29.26 5.91,9.63 7.79,20.22 7.6,30.94 -0.21,12.19 -6.07,22.81 -16.48,28.95 -12.02,7.07 -25.23,8.55 -39.33,4.45 -15.78,-4.6 -26.84,-15.2 -38.14,-25.94 -4,-3.79 -8.24,-7.41 -12.71,-10.63 -6.5,-4.7 -10.45,-13.1 -7.55,-20.83 3.26,-8.7 1.82,-16.18 -2.03,-24.14 -2.72,-5.64 -4.17,-11.9 -6.82,-19.77 5.33,0.7 9.08,1.19 12.83,1.71 16.16,2.27 25.24,-2.2 31.43,-17.23 4.67,-11.34 8.52,-23.14 11.46,-35.04 1.37,-5.55 0.23,-11.93 -0.68,-17.79 -1.87,-12.09 -8.02,-17.17 -20.24,-17.64 -10,-0.39 -13.7,2.38 -13.09,12.35 0.69,11.11 -1.29,21.38 -5.41,31.52 -4.57,11.27 -12.54,14.64 -23.81,10.02 -7.87,-3.23 -13.32,-8.74 -16.46,-16.48 -10.07,-24.91 -14.11,-50.21 -1.44,-75.34 6.99,-13.86 15.23,-27.11 23.52,-40.26 2.29,-3.65 6.76,-5.93 11.13,-9.6 2.27,3.9 4.39,6.04 4.8,8.46 3.14,18.7 13.82,33.85 23.21,49.52 6.55,10.92 14.13,21 23.45,30.1 9.01,8.81 15.48,20.16 23.43,30.11 3.96,4.96 8.14,10.07 13.22,13.75 20.67,14.94 41.54,29.61 62.74,43.78 5.52,3.69 12.35,5.61 18.8,7.66 27.77,8.81 55.77,16.93 83.36,26.24 9.63,3.24 19.04,1.99 28.3,1.45 25.57,-1.51 50.66,-5.71 73.71,-18.18 18.33,-9.91 27.62,-25.82 31.86,-45.44 0.08,-0.39 0.26,-0.83 0.16,-1.18 -4.06,-13.73 -8.03,-27.49 -12.27,-41.16 -4.45,-14.35 -15.15,-22.39 -27.91,-29.34 -10.68,-5.81 -21.8,-7.67 -33.36,-8.26 -14.51,-0.72 -35.41,9.98 -39.51,30.01 -3.19,15.57 0.62,29.58 6.07,43.12 5.87,14.6 22.17,17.55 35.38,6.83 -2.2,-3.37 -4.3,-7.03 -6.82,-10.36 -6.15,-8.09 -8.82,-16.82 -6.17,-26.95 1.59,-6.07 5.32,-9.77 11.34,-11.01 9.39,-1.93 17.14,-1.02 24.53,7.2 15.91,17.69 19.76,42.08 7.87,62.72 -4.72,8.21 -12.69,10.84 -21.43,10.84 -11.58,0 -23.16,-0.63 -34.73,-1.17 -21.11,-0.98 -40.57,-8.12 -59.6,-16.57 -14.23,-6.31 -28.45,-12.67 -42.41,-19.54 -8.19,-4.03 -16.28,-8.53 -23.72,-13.79 -18.85,-13.35 -38.37,-26.06 -55.62,-41.31 -14.91,-13.16 -25.68,-30.23 -33.89,-48.85 -11.91,-27 -18.66,-55.29 -21.06,-84.38 -1.64,-19.79 -0.41,-39.86 0.28,-59.79 0.16,-4.33 3.41,-8.6 5.44,-12.8 0.47,-0.97 2.45,-1.45 2.58,-2.33 1.75,-11.67 12.16,-12.62 20.2,-16.13 6.93,-3.01 14.28,-5.07 21.48,-7.48 32.45,-10.82 51.58,-39.71 48.54,-73.59 -1.12,-12.37 -3.33,-24.42 -9.63,-35.5 -11.38,-19.99 -30.69,-27.6 -49.39,-19.03 -1.04,0.48 -1.87,1.44 -2.97,2.3 -1.81,10.62 0.64,20.5 5.28,30.03 3.67,7.55 7.5,15.03 10.77,22.75 4.16,9.85 1.49,15.17 -8.72,18 -10.85,3 -19.41,0.99 -27.69,-8.13 -10.48,-11.54 -17.75,-24.14 -22.96,-38.69 -7.52,-21.02 -16.84,-41.39 -24.45,-62.37 -5.56,-15.35 -9.05,-31.43 -14.47,-46.83 -6.2,-17.62 -13.44,-34.87 -20.39,-52.221 -3.7,-9.239 -7.75,-18.329 -11.6,-27.5 -0.62,-1.457 -0.75,-3.188 -1.58,-4.5 -15.5,-24.539 -15.56,-53.329 -22.13,-80.321 -6.08,-25.019 0.16,-50.207 -0.71,-75.289 -0.52,-14.828 -0.72,-29.469 4.42,-43.64 6.67,-18.399 16.01,-35.379 26.05,-52.2 9.5,-15.937 22.57,-27.8 36.77,-38.789 4.97,-3.851 69.82,-30.949 96.1,-42.441 14.3,-6.25 26.79,-15.059 36.74,-27.738 8.81,-11.243 19.22,-21.27 29.18,-31.602 4.74,-4.918 11.07,-6.578 17.3,-2.379 12.24,8.231 25.14,15.5 37.24,23.918 9.44,6.582 43.39,14.621 49.64,15.961 16.53,3.531 29.97,11.992 41.57,24.371 8.09,8.621 17.12,16.66 26.85,23.328 8.25,5.66 18.39,4.582 27.84,1.703 4.06,-1.242 -32.74,-53.761 -37.59,-56.421 -10.12,-5.59 -20.23,-11.282 -30.74,-16.071 -14.49,-6.597 -29.15,-12.98 -44.16,-18.269 -5.67,-1.989 -42.72,-34.95 -45,-37.61 -6.78,-7.941 -6.29,-8.73 -0.9,-17.699 7.65,-12.711 17.97,-22.152 31.08,-28.961 5.64,-2.922 10.87,-6.699 16.16,-10.289 18.83,-12.781 40.26,-17.391 62.35,-18.922 15.32,-1.07 30.17,2.461 44.05,9.321 11.57,5.718 23.38,10.511 36.64,9.691 3.01,-0.191 -7.43,-35.551 -27.42,-43.102 -26.23,-9.918 -52.88,-15.16 -80.74,-14.148 -4.97,0.18 -10.34,1.918 -14.65,4.418 -8.26,4.793 -16,10.519 -23.78,16.109 -15.91,11.434 -60.23,30.262 -62.67,35.051 -7.21,14.102 -26.5,46.941 -30.4,46.121 -10.91,-2.301 -22.1,-3.68 -32.7,-7 -14.03,-4.379 -29.57,-3.199 -42.43,-11.711 -1.29,-0.859 -2.7,-1.539 -5,-2.84 4.66,-11.918 8.88,-23.847 14,-35.379 3,-6.742 57.71,-23.5 71.2,-26.152 10.16,-2.008 41.25,-8.59 44.97,-12.269 6.33,-6.278 37,-19.321 41.77,-27.321 4.99,-8.347 14.28,-9.816 23.19,-10.226 16.91,-0.774 33.37,-3.403 48.98,-10.184 4.22,-1.84 8.17,-4.316 14.71,-7.84 -15.45,-8.988 -45.18,-25.16 -46.66,-24.859 -8.72,1.75 -78.23,26.769 -82.1,31 -11.17,12.242 -55.46,25.941 -63.02,25.769 -9.98,-0.238 -36.9,4.5 -40.86,4.774 -3.69,-8.731 -1.51,-16.75 0,-24.281 0.66,-3.321 30.89,-26.731 41.12,-36.672 2.66,-2.59 -3.71,-14.18 -5.56,-16.258 -15.08,-16.973 -38.05,-13.172 -49.59,6.598 -17.23,29.492 -24.91,61.961 -33.1,94.5 -7.2,28.632 -15.91,56.91 -28.6,83.66 -3.52,7.422 -9.13,13.871 -14.05,20.57 -3.07,4.172 -7.13,7.652 -9.91,11.981 -10.12,15.839 -25.48,26.332 -38.86,38.832 -1.75,1.628 -3.62,3.386 -5.76,4.289 -15.04,6.308 -52.54,21.418 -57.18,23.238 0,-2.82 13.92,-31.328 27.72,-38.731 18.19,-9.769 35.09,-21.957 52.38,-33.367 2.49,-1.64 12.99,-22.261 16.52,-29.812 0.84,-1.797 2.08,-3.438 2.81,-5.289 16.84,-42.731 22.82,-86.34 10.03,-131.328 -1.03,-3.582 -2.82,-6.954 -4.89,-11.922 -11.79,10.371 -13.94,22.742 -15.47,35.101 -1.68,13.457 -2.45,27.02 -3.69,40.539 -0.92,9.93 -6.55,39.59 -9.64,43.489 -10.53,13.3 -21.65,26.14 -33.15,39.882 -1.61,-2.461 -2.68,-3.332 -2.7,-4.211 -0.46,-19.98 -0.56,-39.968 -1.29,-59.929 -0.35,-9.75 2.06,-18.02 8.86,-25.153 8.49,-8.898 11.81,-19.378 10.35,-31.859 -1.79,-15.367 10.17,-34.738 24.67,-40.09 13.02,-4.789 23.46,-11.238 27.33,-25.937 0.95,-3.621 18.69,-11.223 23.01,-11.852 10.33,-1.48 19.4,-5.601 25.59,-13.969 12.6,-17.031 28.09,-30.14 48.51,-37.132 -2.49,-5.95 -6.77,-6.438 -11.21,-6.661 -8.77,-0.449 -17.6,-1.769 -26.29,-1.117 -6.52,0.5 -13.87,2.059 -19.08,5.688 -19.18,13.332 -40.5,22.222 -61.12,32.722 -17.24,8.778 -32.34,21.789 -48.31,33.047 -1.56,1.102 -2.71,2.953 -3.73,4.641 -20.29,33.691 -30.83,69.93 -28.23,109.512 0.5,7.57 1.65,31.531 -0.01,35.379 -9.9,22.859 -22.89,43.839 -39.68,62.359 -11.255,12.43 -22.739,24.652 -33.634,37.402 -2.633,3.071 -4.07,7.699 -4.761,11.828 -4.59,27.481 -3.254,54.7 2.078,82.121 6.097,31.34 10.144,63.071 15.57,94.551 2.648,15.391 3.484,30.828 4.402,46.379 0.914,15.469 4.493,30.809 7.438,46.102 2.707,14.058 6.125,27.968 9.227,41.949 3.7,16.73 7.44,33.469 11.1,50.219 2.47,11.308 19.21,60.718 26,73.74 11.05,21.16 74.36,137.31 64.28,237.78 -4.94,32.37 13.21,70.59 -95.18,160.43 -13.923,18.01 -28.322,36.06 -47.357,48.85 -17.519,11.77 -36.211,21.92 -54.894,31.81 -11.579,6.12 -24.821,9.25 -36.047,15.87 -16.696,9.85 -34.309,18.71 -47.657,33.51 -7.046,7.82 -9.816,17.48 -11.441,27.26 -1.367,8.2 -5.066,14.03 -11.586,18.65 -6.172,4.36 -12.621,8.46 -18.148,13.55 -3.274,3 -6.285,7.44 -7.145,11.69 -2.125,10.52 -2.836,21.33 -4.32,32.01 -1.324,9.49 -2.922,18.94 -4.391,28.4 -1.254,8.07 1.129,10.6 8.969,9.12 4.312,-0.81 8.547,-2.07 12.77,-3.28 6.48,-1.84 10.23,-5.46 13.031,-12.35 6.969,-17.11 17.636,-32.27 31.73,-44.33 12.039,-10.31 18.192,-22.8 19.043,-38.36 0.297,-5.43 1.192,-10.82 1.918,-17.14 6.324,0.31 11.348,0.56 17.981,0.91 -1.493,3.99 -2.289,6.9 -3.61,9.54 -10.441,20.85 -14.863,42.89 -11.898,65.99 1.055,8.22 4.183,16.21 6.941,24.1 0.942,2.7 3.633,4.8 7.477,9.61 4.246,-21.34 4.867,-41.1 18.25,-56.7 12.148,-14.16 19.211,-33.1 40.047,-41.12 0,4.77 -0.055,8.56 0.007,12.33 0.352,21.96 -0.703,44.06 1.461,65.84 2.707,27.28 6.59,54.47 12.176,81.47 3.59,17.34 2.942,35.66 3.059,53.55 0.094,13.93 -1.649,27.85 -2.418,41.79 -1.262,22.67 -8.832,43.69 -16.879,64.57 -2.578,6.68 -5.715,13.16 -8.664,19.69 -13.688,30.36 -33.559,56.04 -59.113,77.25 -12.918,10.73 -28.43,17 -44.754,18.89 -15.192,1.76 -30.278,-1.63 -43.067,-11.19 -17.582,-13.16 -31.933,-28.68 -38.457,-50.48 -3.187,-10.66 -1.816,-20.5 2.149,-30.32 2.226,-5.53 5.09,-10.79 7.578,-16.21 4.195,-9.14 1.414,-18.06 -1.586,-26.7 -0.563,-1.61 -4.703,-3.27 -6.785,-2.86 -14.778,2.9 -25.778,9.88 -32.782,24.62 -7.988,16.81 -9.671,34.68 -11.3,52.25 -1.532,16.42 5.261,31.65 16.429,44.64 18.09,21.04 40.786,33.77 67.364,41.03 20.422,5.58 41.152,7.09 61.703,4.5 15.293,-1.94 30.113,-7.92 42.789,-17.55 21.308,-16.19 37.172,-37.16 50.59,-59.9 12.359,-20.97 25.617,-41.76 34.769,-64.15 9.586,-23.42 17.692,-47.99 16.813,-74.19 -0.989,-29.51 -1.856,-59.02 -2.696,-88.52 -0.293,-10.37 0.489,-20.84 -0.687,-31.1 -2.137,-18.63 -5.555,-37.11 -8.067,-55.7 -1.761,-13 -3.027,-26.08 -4.23,-39.14 -0.184,-2.02 1.18,-4.19 3.973,-6.57 2.363,5.63 6.144,11.09 6.797,16.9 1.214,10.93 7.718,18.18 14.66,25.25 14.135,14.42 30.675,22.4 52.915,17.38 -2.08,-4.96 -3.5,-9.89 -6.04,-14.14 -8.41,-14.03 -17.06,-27.93 -25.95,-41.66 -5.73,-8.87 -9.718,-18.2 -11.089,-28.75 -1.078,-8.3 -4.043,-16.49 -4.102,-24.74 -0.187,-25.58 5.774,-49.04 26.791,-66.23 1.79,-1.46 3.07,-3.53 4.83,-5.59 4.88,0.79 7.35,2.53 5.5,8.01 -1.9,5.66 -3.16,11.53 -4.82,17.28 -3.83,13.21 0.27,25.18 5.56,37.01 5.85,13.09 11.69,26.18 17.38,39.34 4.89,11.34 9.26,22.91 14.39,34.14 7.32,16.04 10.87,32.99 12.59,50.33 1.07,10.68 0.65,21.51 1.76,32.18 0.75,7.16 -0.47,13.32 -4.23,19.36 -10.92,17.62 -21.68,35.35 -32.43,53.07 -1.93,3.19 -3.54,6.58 -5.57,10.38 14.49,6.71 26.1,2.77 37.62,-3.56 12.59,-6.93 13.05,-21.2 20.22,-33.61 1.85,3.27 3.64,5.2 4.05,7.39 1.19,6.41 3.53,10.75 10.8,12.46 7.41,1.76 8.83,5.05 7.41,12.51 -4.15,21.66 -9.91,42.67 -21.66,61.81 -8.96,14.6 -17.55,29.56 -24.75,45.07 -11.32,24.38 -18.8,50.17 -22.44,76.82 -1.68,12.35 3.9,23.94 10.57,33.66 39.24,56.85 109.52,42.8 112.23,41.39 14.49,-7.58 29.32,-15.13 37.17,-30.54 3.01,-5.91 5.43,-12.69 5.88,-19.22 1.2,-17.1 1.31,-34.28 1.46,-51.44 0.03,-2.93 -1.27,-6.33 -3.02,-8.74 -7.45,-10.28 -17.34,-17.57 -29.36,-21.68 -2.94,-1.01 -6.32,-1.35 -9.42,-1.11 -8.05,0.6 -11.52,4.93 -9.62,12.89 1.39,5.75 3.99,11.27 6.52,16.66 2.7,5.78 12.24,17.26 15.34,22.86 8.42,15.28 0.7,25.55 -5.31,40.46 -3.79,9.41 -13.8,15.68 -23.93,18.55 -10.78,3.05 -19.9,2.55 -32.28,0.44 -12.4,-2.83 -35.92,-12.22 -36.64,-43.51 2.97,-20.27 13.07,-33.68 20.79,-49.61 7.87,-17.91 16.32,-35.56 24.34,-53.4 5.18,-11.52 5.2,-11.79 17.36,-22.5"
         style="fill:#6f1812;fill-opacity:1;fill-rule:nonzero;stroke:none"
         id="path24" /><path
         d="m 1431.84,1624.79 c 27.05,4.13 65.23,56.14 149.88,77.27 31.06,7.23 59.93,-2.95 89.04,-11.04 6.36,-1.77 59.15,-43.94 18.95,-83.83 -20.07,-16.25 -40.35,-22.89 -45.67,-16.25 40.93,-5.78 45.17,-49.54 23.87,-71.13 -21.39,-28.78 -55.3,-24.57 -73.93,-14.29 -23.86,13.18 -56.16,54.57 -84.67,84.59 -18.78,8.73 -60.32,32.21 -77.47,34.68"
         style="fill:#1c6434;fill-opacity:1;fill-rule:nonzero;stroke:none"
         id="path26" /><path
         d="m 1576.67,1093.72 c -4.5,4.39 -129.22,62.67 -134.47,69.36 -51.07,39.32 -10.37,99.39 13.58,100.06 19.11,0.53 38.34,-8.03 43.67,-10.88 4.76,-2.56 -2.21,15.41 19.81,37.6 17.62,14.89 35.13,18.39 53.95,10.84 78.16,-62.53 5.89,-203.44 3.46,-206.98"
         style="fill:#1c6434;fill-opacity:1;fill-rule:nonzero;stroke:none"
         id="path28" /><path
         d="m 1689.21,1972.96 c -15.45,-8.81 -38.75,-1.68 -48.28,5.82 -4.73,3.72 -42.58,60.08 9.71,100.96 9.38,15.27 40.9,22.38 50.03,72.11 8.81,39.08 4.89,65.36 6,70.13 4.46,-4.29 24.22,-27.74 31.3,-35.86 10.99,-12.6 23.12,-24.26 33.45,-37.35 47.66,-72.33 44.56,-108.93 40.55,-130.68 -5.67,-24.91 -6.48,-36.36 -23,-51.95 -4.34,-4.09 -25.42,-12.14 -40.89,-7.5 -21.47,6.13 -23.71,12.29 -29.52,25.09 -3.51,27.76 -15.98,-5.98 -29.35,-10.77"
         style="fill:#1c6434;fill-opacity:1;fill-rule:nonzero;stroke:none"
         id="path30" /><path
         d="m 1295.23,2242.13 c 3.2,7.1 -30.41,-4.49 -37.44,26.67 -11.55,51.27 29.73,71.38 58.74,71.13 89.34,-4.38 114.12,-12.17 139.37,-20.22 11.07,-4.52 14.02,-8.57 18.85,-17.23 -6.6,-3.5 -48.66,-39.79 -50.17,-41.79 -7.56,-10.04 -12.14,-31.5 -22.53,-46.48 -5.65,-8.14 -24.26,-50.76 -97.47,-50.93 -19.81,3.29 -32.47,10.99 -28.62,43.09 6.05,24.05 19.72,31.86 19.27,35.76"
         style="fill:#1c6434;fill-opacity:1;fill-rule:nonzero;stroke:none"
         id="path32" /><path
         d="m 1753.68,1529.3 c -7.89,3.8 -41.72,2.14 -45.24,17.88 -20.26,17.36 3.59,69.74 71.01,61.93 70.18,-0.84 127.3,43.05 135.6,46.97 5.86,2.75 9.91,0.55 9.71,-5.33 -0.33,-9.37 -5.77,-90.37 -29.28,-120.91 -21.07,-36.24 -69.79,-89.17 -142.67,-75.16 -77.4,29.75 -3.77,72.89 0.87,74.62"
         style="fill:#1c6434;fill-opacity:1;fill-rule:nonzero;stroke:none"
         id="path34" /><path
         d="m 319.82,2071.39 c 3.282,-8.41 5.196,-14.94 8.274,-20.87 10.039,-19.33 57.597,-52.54 63.398,-57.87 12.324,-11.31 45.219,-47.26 47.192,-54.22 18.425,-27.13 -4.512,-62.39 -17.903,-64.28 -7.035,-0.99 -20.562,-0.4 -28.07,-1.24 -2.246,-9.42 -0.016,-23.45 -6.606,-32.2 -11.898,-15.81 -33.054,-21.09 -51.195,-13.21 -6.222,2.7 -39.238,27.29 -44.637,42.98 -16.878,35.87 -17.289,55.27 -14.074,80.26 0.457,5.96 9.086,54.72 14.977,72.43 5.75,17.29 15.469,32.96 28.644,48.22"
         style="fill:#1c6434;fill-opacity:1;fill-rule:nonzero;stroke:none"
         id="path36" /><path
         d="m 1416.34,1276.14 c -30.26,-12.46 -57.06,-26.55 -86.44,-33.81 -9.58,-2.38 -19.56,-4.09 -29.39,-4.25 -20.32,-0.32 -40.64,0.43 -60.18,7.56 -8.56,3.11 -15.16,7.98 -20.81,15.2 -12.58,16.12 -17.92,34.63 -18.8,54.49 -0.91,20.52 18.66,40.53 39.33,41.55 2.18,0.11 4.29,1.68 7.02,2.82 -1.64,2.23 -2.11,3.54 -3.01,3.97 -10.49,5.2 -12.17,6.97 -10.21,18.05 4.14,23.4 15.49,41.68 39.07,50.01 2.85,1.01 6.4,1.43 9.27,0.72 26.1,-6.42 48.52,-18.17 60.4,-44.06 8.14,-17.73 16.35,-35.45 23.87,-53.46 8.08,-19.35 21.57,-34.28 37,-47.83 3.81,-3.35 7.72,-6.58 12.88,-10.96"
         style="fill:#1c6434;fill-opacity:1;fill-rule:nonzero;stroke:none"
         id="path38" /><path
         d="m 1425.5,2193.14 c 53.56,45.29 84.93,3.5 101.99,3.85 40.34,-4.95 48.83,-8.72 111.59,45.14 1.07,-6.41 -9.36,-122.2 -87.52,-178.35 -32.48,-24.92 -107.22,-4.39 -93.58,36.33 11.01,26.42 4.96,9.36 -17,17.05 -34.74,12.13 -26.54,66.62 -15.48,75.98"
         style="fill:#1c6434;fill-opacity:1;fill-rule:nonzero;stroke:none"
         id="path40" /><path
         d="m 0,1682.71 c 5.13672,9.08 50.8594,32.16 61.1016,37.48 4.9531,2.58 110.6444,28.58 164.0464,-55.67 0.313,-0.7 0.211,-1.59 0.481,-2.33 13.269,-36.73 -40.063,-46.28 -37.551,-49.72 29.902,-53.06 -43.969,-76.8 -62.816,-63.13 -17.375,2.36 -31.6878,36.49 -44.8948,69.52 C 70.3203,1643.97 6.0625,1679.79 0,1682.71"
         style="fill:#1c6434;fill-opacity:1;fill-rule:nonzero;stroke:none"
         id="path42" /><path
         d="m 259.941,1804.86 c 8.547,-9.57 56.793,-40.97 67.766,-44.46 12.898,-4.11 69.977,-25.88 80.016,-40.96 8.504,-12.77 9.793,-26.09 6.531,-40.93 -4.031,-18.33 -31.258,-28.03 -49.203,-33.08 -3.024,-0.85 10.73,-29.72 -7.559,-50.48 -12.308,-24.36 -60.234,-12.03 -77.074,3.49 -6.578,6.06 -26.488,45.97 -29.016,65.99 -12.683,67.7 3.832,132.86 8.539,140.43"
         style="fill:#1c6434;fill-opacity:1;fill-rule:nonzero;stroke:none"
         id="path44" /><path
         d="m 984.637,1924.74 c -2.899,34.57 -26.84,59.35 -90.16,101.61 -39.289,27.51 -32.809,44.11 -32.942,53.03 9.567,31.45 27.731,48.79 51.504,51.9 22.051,1.43 24.887,-2.71 34.945,-14.07 1.657,3.75 -3.812,37.38 45.02,44.72 42.406,5.46 47.406,-65.04 45.816,-83.15 0.05,-81.89 -51.047,-152.93 -54.183,-154.04"
         style="fill:#1c6434;fill-opacity:1;fill-rule:nonzero;stroke:none"
         id="path46" /><path
         d="m 1181.97,2401.88 c -1.42,-1.27 -41.28,-5.77 -48.3,0.83 -9.12,8.58 -23.12,24.77 -9.12,59.88 6.31,11.22 10.77,21.45 23.99,29.05 5.46,3.9 43.63,31.99 133.38,24.32 1.17,-0.1 43.31,-2.19 72.9,-38.12 2.91,-3.63 -52.3,-14.45 -67.18,-44.07 -10.22,-17.52 -2.05,-70.39 -52.36,-78.9 -80.97,-0.35 -52.19,45.79 -53.31,47.01"
         style="fill:#1c6434;fill-opacity:1;fill-rule:nonzero;stroke:none"
         id="path48" /><path
         d="m 585.961,2092 c 27.074,-5.88 69.105,-35.6 72.621,-39.92 9.672,-11.88 23.34,-51.37 12.191,-64.17 -14.781,-11.73 -15.082,-17.16 -47.285,-12.2 -9.105,1.12 -5.754,4.81 -5.968,-5.12 -0.454,-21.25 -23.059,-49.39 -42.747,-50.12 -3.398,-0.13 -28.898,4.46 -36.628,23.82 -2.18,5.45 -30.375,70.35 -42.2,87.57 -6.543,9.53 -27.129,44.43 -32.715,54.53 -4.578,8.25 -2.55,11.76 6.571,13.19 5.887,0.93 78.105,0.7 116.16,-7.58"
         style="fill:#1c6434;fill-opacity:1;fill-rule:nonzero;stroke:none"
         id="path50" /><path
         d="m 755.848,2337.63 c -11.496,-14.84 -16.618,-21.88 -34.719,-17.68 -49.527,20.55 -28.715,87.36 -10.496,99.19 31.246,22.52 48.422,56.98 52.285,78.55 4.723,26.37 8.219,37.77 5.566,48.51 11.094,-16.72 79.754,-63.5 79.082,-202.06 -9.66,-41.79 -35.355,-50.84 -51.113,-54.9 -11.457,0.74 -34.195,3.87 -39.484,26.76 -2.867,12.4 0.941,19.15 -1.121,21.63"
         style="fill:#1c6434;fill-opacity:1;fill-rule:nonzero;stroke:none"
         id="path52" /><path
         d="m 1798.41,1836.66 c -4.07,0 -7.63,-0.07 -11.17,0.02 -19.87,0.51 -37.66,-4.16 -52.08,-19.05 -6.62,-6.84 -14.66,-12.27 -21.69,-18.75 -10.5,-9.69 -20.65,-19.75 -31,-29.61 -3.18,-3.02 -6.53,-5.86 -9.81,-8.78 -11.95,-10.63 -24.81,-8.77 -37.9,-2.62 -1.77,0.83 -4.05,1.94 -4.73,3.51 -5.17,11.85 -15.6,21.17 -16.65,35.06 -0.66,8.74 -2.02,17.42 -3.01,26.14 -0.48,4.18 -2.11,6.81 -6.21,9.19 -29.98,17.42 -33.41,61.03 -2.94,82.95 14.26,10.26 30.84,9.54 46.52,13.15 2.65,0.61 25.93,-0.02 47.08,-5.83 22.07,-5.49 20.28,-5.5 30.49,-8.68 27.89,-8.68 45.32,-30.15 61.82,-52.37 5.1,-6.86 11.97,-13.17 11.28,-24.33"
         style="fill:#1c6434;fill-opacity:1;fill-rule:nonzero;stroke:none"
         id="path54" /><path
         d="m 412.047,1529.2 c 4.195,13.49 8.047,38.74 33.25,42.33 39.445,10.86 63.996,-76.46 68.547,-93.48 11.773,-43.87 33.121,-53.61 60.722,-63.97 9.821,-5.86 -30.14,-18.71 -65.675,-18.71 -113.094,16.8 -139.793,54.05 -143.871,59.04 -14.125,15.39 -13.59,37.32 0.148,53 12.422,14.19 27.551,22.84 46.879,21.79"
         style="fill:#1c6434;fill-opacity:1;fill-rule:nonzero;stroke:none"
         id="path56" /><path
         d="m 756.941,1916.67 c 14.516,1.26 34.887,0.17 58.383,-7.88 21.422,-10.58 124.078,-74.9 97.61,-165.27 -11.454,-19.52 -29.731,-25.33 -59.457,-7.16 -6.809,-5.6 9.933,-56.66 -45.133,-38.54 -45.141,14.87 -45.989,58.69 -43.629,80.63 1.57,14.61 15.875,69.24 10.598,89.47 0,27.15 -13.27,35.24 -18.372,48.75"
         style="fill:#1c6434;fill-opacity:1;fill-rule:nonzero;stroke:none"
         id="path58" /><path
         d="m 299.621,1286.14 c 3.574,1.35 31.231,6.15 42.234,-3.21 15.454,-13.23 18.594,-16.63 24.29,-36.43 4.242,-14.74 -1.274,-32.61 -14.18,-41.04 -11.32,-7.4 -92.524,-51.93 -98.141,-56.33 -8.804,-6.88 -13.558,-5.89 -18.094,4.29 -2.902,6.52 -42.5,87.11 -41.796,104.09 -3.801,24.41 6.054,46.24 28.07,58.35 25.32,13.76 40.879,12.91 53.398,7.71 13.207,-6.06 14.391,-8.94 19.262,-18.7 6.055,-12.13 4.383,-15.53 4.957,-18.73"
         style="fill:#1c6434;fill-opacity:1;fill-rule:nonzero;stroke:none"
         id="path60" /><path
         d="m 1345.07,1455.47 c 4.68,-3.17 9.06,-7.67 14.37,-9.48 23.32,-7.94 46.48,-18.38 71.97,-14.27 13.22,2.14 26.52,5.62 38.88,10.7 17.23,7.08 33.21,17.2 50.46,24.2 15.49,6.29 31.15,5.33 44.43,-6.99 15.59,-14.44 15.24,-41.35 -0.6,-55.63 -9.02,-8.14 -18.17,-15.05 -31.35,-15.19 -6.06,-0.06 -12.08,-3.13 -19.63,-5.26 2.53,-2.9 3.79,-4.61 5.32,-6.06 7.31,-6.92 10.77,-15.73 12.17,-25.42 1.35,-9.3 -3.11,-16.56 -10.11,-21.67 -7.37,-5.38 -15.19,-11.67 -23.7,-13.59 -10.13,-2.29 -21.28,-0.98 -31.87,0.02 -6.2,0.58 -12.05,4.2 -18.26,5.44 -20.48,4.08 -36.53,15.99 -51.21,29.6 -28.27,26.19 -47.65,57.61 -52.88,96.57 -0.21,1.55 -0.21,3.17 -0.02,4.73 0.08,0.61 0.96,1.12 2.03,2.3"
         style="fill:#1c6434;fill-opacity:1;fill-rule:nonzero;stroke:none"
         id="path62" /><path
         d="m 712.566,2281.08 c 1.973,-4.99 -9.492,-52.18 82.348,-105.78 18.012,-10.5 16.324,-31.29 5.59,-50.28 -16.102,-25.07 -44.988,-12.62 -50.371,-13.36 7.433,-17.35 -3.711,-40.27 -21.442,-37.76 -173.832,34.04 -33.445,203.62 -16.125,207.18"
         style="fill:#1c6434;fill-opacity:1;fill-rule:nonzero;stroke:none"
         id="path64" /><path
         d="m 578.473,2241.35 c 0.648,-15.83 -9.621,-31.97 -20.5,-39.47 -6.414,-4.43 -38.032,-9.08 -56.45,16.69 -9.05,11.42 -11.753,25.11 -8.664,39.61 2.743,12.85 10.821,45.5 10.762,48.97 -0.355,22.36 -1.555,44.62 -10.476,65.65 -4.942,11.66 -9.625,23.42 -14.086,34.29 4.218,5.7 43.004,-16 58.168,-20.64 29.929,-14.45 52.808,-23.97 73.91,-44.72 5.965,-5.87 16.144,-10.95 28.656,-55.04 4.992,-36.97 -20.879,-56.62 -38.039,-54.71 -7.852,0.86 -11.043,-1.68 -23.281,9.37"
         style="fill:#1c6434;fill-opacity:1;fill-rule:nonzero;stroke:none"
         id="path66" /><path
         d="m 174.656,1847.55 c 0.282,-4.83 6.891,-11.63 -6.222,-33.53 -11.332,-17.58 -42.567,-19.4 -58.914,-6.93 -19.8442,15.13 -31.8872,36.03 -36.8012,59.78 -3.8516,18.57 -4.5625,109.7 8.914,136.14 7.1875,14.1 17.4883,17.95 26.1292,8.87 9.847,-10.36 28.429,-46.78 38.363,-57.06 18.906,-19.82 55.93,-24.66 70.102,-46.03 33.472,-40.24 0,-77.83 -41.571,-61.24"
         style="fill:#1c6434;fill-opacity:1;fill-rule:nonzero;stroke:none"
         id="path68" /><path
         d="m 297.246,1438.72 c 2.492,-3.41 10.734,-2.89 14.387,-20.89 -0.735,-10.08 5.43,-37.32 -24.692,-48.17 -75.566,-8.96 -51.621,30.25 -101.718,52.05 -21.325,12.88 -58.727,-10.82 -60.5,-8.89 -1.852,2.01 16.965,48.85 25.965,62.9 31.789,57.54 96.023,53 128.382,50.91 24.785,-4.52 27.137,-12.22 31.633,-18.48 11.098,-15.47 15.395,-33.11 9.891,-51.83 -2.633,-8.94 -13.028,-18.02 -23.348,-17.6"
         style="fill:#1c6434;fill-opacity:1;fill-rule:nonzero;stroke:none"
         id="path70" /><path
         d="m 1379.48,2089.58 c -1.56,-4.09 -8.14,-36.64 1.59,-85.4 4.98,-63.3 -8.57,-71.96 -26.4,-84.22 -13.11,-9.03 -34.05,-10.82 -44.74,0.52 -3.81,4.04 -18.39,16.26 -10.85,31.95 -2.05,-14.07 -14.6,-23.89 -26.34,-28.55 -7.2,-2.86 -79.35,18.65 -27.03,106.98 21.99,27.82 41.52,37.16 52.12,41.73 15.29,6.57 69,18.85 81.65,16.99"
         style="fill:#1c6434;fill-opacity:1;fill-rule:nonzero;stroke:none"
         id="path72" /><path
         d="m 707.652,1743.94 c -3.953,-2.5 -48.558,-17.78 -69.144,-22.68 -26.438,-6.28 -110.707,-22.15 -138.91,72.02 0.547,35.93 22.343,43.62 32.39,49.49 17.086,5.46 33.879,-20.36 36.328,-22.29 0.911,5.95 -7.429,45.41 13.715,58.42 21.594,13.41 39.129,4.04 53.164,-19.61 10.735,-72.66 27.067,-92.82 37.004,-96.64 8.25,-3.17 30.117,-16.06 35.453,-18.71"
         style="fill:#1c6434;fill-opacity:1;fill-rule:nonzero;stroke:none"
         id="path74" /><path
         d="m 1451.25,1937.76 c -1.25,0.95 -1.81,1.61 -2.51,1.86 -22.48,8.12 -30.45,26.54 -34.02,47.99 -1.88,11.33 5.88,25.64 16.54,30.72 7.56,3.61 15.09,7.35 22.86,10.47 4.75,1.9 9.85,3.28 14.91,3.96 11.08,1.49 52.53,-5.07 55.07,-5.92 18.15,-6.08 36.37,-11.98 54.59,-17.82 6.08,-1.95 12.41,-3.18 18.37,-5.42 7.28,-2.72 8.74,-7.17 5.45,-14.1 -0.34,-0.72 -0.77,-1.43 -1.28,-2.04 -12.11,-14.57 -19.55,-31.94 -28.87,-48.18 -11.32,-19.73 -26.28,-35.92 -45.05,-48.77 -11.88,-8.12 -24.51,-13.22 -39.13,-12.78 -5.99,0.18 -12,-0.43 -17.99,-0.28 -12.61,0.31 -20.79,7.53 -23.12,20.04 -3.11,16.72 -2.6,21.89 4.18,40.27"
         style="fill:#1c6434;fill-opacity:1;fill-rule:nonzero;stroke:none"
         id="path76" /><path
         d="m 849.25,1255.22 c 5.219,2.08 24.324,19.19 62.309,-0.76 20.781,-18.44 14.019,-47.89 4.129,-66.33 -9.583,-17.87 -21.063,-34.89 -40.872,-53.26 -3.781,-5.55 -76.617,-52.62 -78.851,-53.26 -5.902,-1.67 16.805,56.87 2.473,82.98 -7.68,21.01 -18.54,24.82 -28.485,44.18 -3.637,7.07 -7.074,47.96 0.973,60.14 15.156,22.94 38.855,25.34 59.387,15.35 17.253,-10.67 16.871,-24.56 18.937,-29.04"
         style="fill:#1c6434;fill-opacity:1;fill-rule:nonzero;stroke:none"
         id="path78" /><path
         d="m 1836.19,1887.59 c 32.41,-24.9 55.93,-52.06 57.3,-92.88 0.14,-4.37 0.85,-8.73 1.33,-13.08 2.02,-18.56 -0.41,-36.31 -9.42,-52.9 -0.19,-0.35 -0.51,-0.68 -0.56,-1.05 -3.11,-18.67 -17.04,-31.2 -26.23,-46.42 -5.56,-9.19 -13.92,-12.65 -24.17,-12.73 -21.61,-0.16 -40.92,5.36 -56.53,21.41 -2.69,2.77 -7.53,4.14 -11.58,4.73 -5.06,0.73 -10.35,0.2 -15.52,-0.17 -10,-0.7 -17.93,3.75 -24.6,10.34 -8.22,8.12 -4.64,27.55 5.8,35.17 5.1,3.71 10.06,7.67 14.68,11.95 7.07,6.57 15.26,10.99 23.62,15.73 14.98,8.49 31.36,16.09 40.05,32.8 2.14,4.12 5.74,7.62 9.14,10.9 9.1,8.78 13.7,19.12 13.93,31.94 0.24,13.89 1.68,27.77 2.76,44.26"
         style="fill:#1c6434;fill-opacity:1;fill-rule:nonzero;stroke:none"
         id="path80" /><path
         d="m 1166.25,2091.25 c -2.6,-1.66 -19.09,-25.56 -50.06,-23.64 -41.14,6.48 -24.43,62.55 -7.67,78.84 7.41,7.2 42.16,41.62 47.44,66.35 1.4,6.57 7.85,60.63 7.85,66.06 13.91,-0.74 36.67,-29.2 43.48,-36.73 15.72,-16.9 16.78,-20.15 32.34,-66.21 5.48,-12.15 22.02,-51.19 -2.86,-99.08 -16.51,-28.07 -63.93,2.6 -70.52,14.41"
         style="fill:#1c6434;fill-opacity:1;fill-rule:nonzero;stroke:none"
         id="path82" /><path
         d="m 1412.72,1840.47 c 14.7,2.71 26.49,-2.26 36.12,-13.32 4.62,-5.31 7.61,-10.95 8.08,-18.14 0.68,-10.57 4.83,-21.29 -2.21,-31.29 -1.36,-1.93 -2.34,-4.29 -4.09,-5.75 -12.47,-10.48 -24.8,-21.18 -37.82,-30.95 -5.92,-4.45 -13.02,-7.85 -20.09,-10.13 -21.75,-7.03 -44.42,-9.13 -67.03,-11.64 -15.84,-1.77 -31.58,-3.5 -47.83,-1.78 -1.06,6.8 2.74,11.05 7.05,14.46 8.1,6.39 11.34,14.95 13.12,24.68 3.14,17.19 8.42,34.19 9.59,51.5 0.93,13.61 6.41,25.31 9.6,37.92 1.96,7.78 6.75,13.43 13.52,17.51 22.09,13.34 44.7,16.06 68.14,3.48 11.16,-5.99 15.51,-13.87 13.85,-26.55"
         style="fill:#1c6434;fill-opacity:1;fill-rule:nonzero;stroke:none"
         id="path84" /><path
         d="m 1717.58,1329.68 c -2.52,-21.57 -2.1,-29.89 -12.9,-45.07 -4.51,-6.35 -25.23,-13.73 -34.38,-10.53 -36.35,12.7 -49.59,46.63 -40.96,78.46 3.44,12.71 6.96,25.39 10.26,38.14 0.57,2.18 0.82,4.77 0.23,6.89 -3.22,11.65 -7.58,22.34 -18.18,29.93 -8.61,6.16 -15.95,14.09 -24.71,22 7.94,5.08 15.14,6.52 22.6,6.58 28.06,0.2 55.97,-1.92 82.75,-10.69 23.74,-7.76 45.36,-19.75 62.76,-38.25 8.66,-9.22 9.99,-32.09 4.49,-42.44 -7.59,-14.3 -7.03,-25.65 -22.29,-33.03 -6.77,-5.73 -19.53,-4.95 -29.67,-1.99"
         style="fill:#1c6434;fill-opacity:1;fill-rule:nonzero;stroke:none"
         id="path86" /><path
         d="m 1059.46,2223.79 c -0.34,-0.2 -0.89,-0.33 -0.99,-0.6 -3.74,-11.58 -29.25,-14.89 -39.57,-12.87 -52.533,16.52 -27.99,70.14 -26.509,72.82 17.189,31.08 16.599,41.54 38.069,61.77 18.58,21.35 42.51,40.03 80.49,36.04 0,0 -12.37,-8.79 -13.3,-32.97 0.93,-60.87 72.66,-111.23 9.63,-142.83 -14.93,-7.31 -29,-4.43 -39.79,8.26 -2.83,3.33 -5.36,6.91 -8.03,10.38"
         style="fill:#1c6434;fill-opacity:1;fill-rule:nonzero;stroke:none"
         id="path88" /><path
         d="m 508.258,1167.19 c -9.399,-11.68 -45.5,-12.76 -56.641,16.78 -0.922,5.82 -1.32,11.72 -1.933,17.34 -8.266,0.73 -15.801,0.61 -22.95,2.21 -14.945,3.36 -33.988,13.66 -33.886,35.86 2.75,32.84 43.687,47.36 62.847,51.57 14.754,3.23 101.66,23.48 131.274,24.62 3.179,0.12 6.379,-0.04 9.551,-0.24 0.644,-0.05 -78.555,-136.07 -88.262,-148.14"
         style="fill:#1c6434;fill-opacity:1;fill-rule:nonzero;stroke:none"
         id="path90" /><path
         d="m 536.535,1077.34 c 4.297,3.84 59.988,37.45 62.293,85.83 1.363,28.73 -2.305,41.9 23.766,66.18 10.594,8.22 26.269,5.44 33.922,-4.72 4.632,-6.16 6.039,-20.6 11.011,-25.07 7.422,4.58 3.852,16.52 18.129,25.26 17.223,7 35.961,-1.62 43.532,-18.56 4.132,-9.25 11.546,-46.72 -18.176,-90.92 -23.879,-24.21 -65.532,-38.28 -93.578,-42.93 -15.524,-2.58 -76.7,2.62 -80.899,4.93"
         style="fill:#1c6434;fill-opacity:1;fill-rule:nonzero;stroke:none"
         id="path92" /><path
         d="m 386.23,2147.8 c -2.101,-1.76 -24.324,-28.61 -42.402,-30.33 -19.883,3.28 -29.512,27.62 -30.672,39.07 -0.945,9.3 -10.195,47.7 2.957,75.67 12.61,26.73 29.176,48.05 37.274,57.21 17.148,12.17 33.949,27.85 57,20.75 -1.961,-3.47 -17.907,-38.82 -12.657,-54.79 1.454,-4.42 4.024,-8.56 6.586,-12.5 11.715,-17.98 24.637,-35.27 35.172,-53.9 12.539,-22.18 6.039,-36.49 -13.933,-51.24 -17.922,-9.82 -36.586,7.14 -39.325,10.06"
         style="fill:#1c6434;fill-opacity:1;fill-rule:nonzero;stroke:none"
         id="path94" /><path
         d="m 945.852,2250.75 c 14.558,-5.02 18.828,-27.32 17.863,-38.48 0,-8.67 -9.227,-22.96 -21.715,-30.58 -20.852,-7.82 -52.02,1.33 -60.949,5.69 -24.672,12.05 -78.778,21 -79.172,21.04 -15.328,1.51 -18.574,7.94 -9.516,20.1 4.731,6.35 74.153,74.5 127.551,90.24 29.492,8.28 45.719,-25.33 45.82,-28.46 4.024,-22.38 -12.035,-29.47 -19.882,-39.55"
         style="fill:#1c6434;fill-opacity:1;fill-rule:nonzero;stroke:none"
         id="path96" /><path
         d="m 1629.27,2446.28 c -41.28,-86.78 29.64,-68.06 4.01,-155.16 -5.86,-10.3 -19.7,-19.88 -31.51,-18.51 -24.79,5.85 -25.6,23.36 -27.54,27.32 -3.74,-3.74 -3.22,-7.07 -7.71,-19.82 -6.67,-9.49 -22.57,-18.72 -47.89,-4.4 -17.69,17.06 -39.63,64.4 14.32,120 3.18,3.29 28.85,34.56 51.19,40.9 47.89,14.31 49.07,12.44 45.13,9.67"
         style="fill:#1c6434;fill-opacity:1;fill-rule:nonzero;stroke:none"
         id="path98" /><path
         d="m 962.668,2410.89 c -4.84,-2.12 -8.484,-3.71 -12.109,-5.33 -26.071,-11.68 -44.485,4.3 -48.504,25.32 -3.836,20.07 5.32,36.45 22.769,48.37 19.891,13.6 42.196,22.02 63.305,32.96 16.331,8.48 31.161,19.15 44.291,32.1 4.13,4.08 8.05,4.44 10.48,-0.54 2.51,-5.15 -7.33,-120.8 -11.11,-145.98 -0.92,-6.2 -3.64,-12.23 -6.14,-18.08 -8.76,-12.38 -20.43,-17.65 -31.248,-16.06 -27.222,0.49 -29.117,38.41 -31.734,47.24"
         style="fill:#1c6434;fill-opacity:1;fill-rule:nonzero;stroke:none"
         id="path100" /><path
         d="m 240.871,2086.95 c 2.949,-5.89 7.656,-15.38 9.551,-19.72 5.82,-13.35 1.539,-28.47 -10.469,-36.73 -17.336,-14.16 -47.906,-5.02 -57.851,7.45 -3.461,3.85 -14.082,12.66 -21.442,34.34 -4.062,15.34 -5.41,15.88 -8.969,33.82 -14.273,28.12 -42.75,38.3 -48.246,47.34 -6.0622,9.95 -0.675,12.99 10.727,15.82 22.617,5.62 45.344,3.57 67.887,1.56 48.582,-7.69 73.105,-14.94 83.007,-32.41 10.118,-17.86 3.895,-43.71 -9.367,-50.67 -3.804,-2 -10.097,1.52 -14.828,-0.8"
         style="fill:#1c6434;fill-opacity:1;fill-rule:nonzero;stroke:none"
         id="path102" /><path
         d="m 3512.87,1125.86 c -0.04,-7.96 -10.57,-68.71 9.78,-85.56 17.88,-17.75 50.82,-24.53 59.11,-0.41 10.97,31.92 -24.23,58.05 -43.19,70.19 -6.32,4.04 -16.6,11.12 -25.7,15.78 z m -23.12,8.98 c -20.8,0.81 -53.6,-0.62 -72.93,-10.83 -9.72,-5.13 -37.8,-16.86 -30.28,-44.08 6.06,-13.24 38.44,-19.24 69.77,-2.57 23.63,12.57 34.92,31.06 33.44,57.48 z m -53.69,177.11 c -7.83,0.01 -19.29,-35.58 -30.53,-65.5 -37.43,-95.78 82.02,-94.13 82.02,-73.29 3.85,49.21 -30,138.95 -51.49,138.79 z m 140.11,-96.88 c -46.24,-25.87 -51.51,-43.49 -51.51,-43.49 -10.14,-28.07 20.9,-41.69 30.56,-44.85 52.19,-17.49 117.57,88.62 91.41,120.27 -14.45,6.32 -70.27,-32.14 -70.46,-31.93 z m -166.71,-66.89 c -8.11,8.86 -14.71,17.11 -22.36,24.22 -14.89,13.86 -16.51,30.84 -13.51,49.44 3.5,21.84 12,42.13 19.37,62.74 4.14,11.6 17.12,40.17 35.29,46.78 28.23,3.49 47.46,-16.1 69.71,-83.95 3.8,-16.35 12.51,-34.68 22.34,-36.61 5.48,-1.03 31.66,16.9 36.49,19.88 18.29,11.29 46.97,33.8 81.35,41.79 18.04,3.31 32.44,-1.8 34.55,-26 2.64,-21.78 0,-43.21 -8.11,-63.49 -11.21,-28.07 -22.91,-50.02 -76.34,-74.7 -5.54,1.65 8.64,-26.32 11.05,-42.38 3.75,-20.29 -4.43,-40.51 -17.7,-54.97 -6.92,-7.55 -34.62,-11.879 -53.42,-0.51 -34.35,19.28 -29.87,36.52 -40.32,56.78 -29.02,-24.46 -116.89,-33.02 -126.35,10.16 -6.5,48.65 43.62,69.25 47.96,70.82"
         style="fill:#6f1812;fill-opacity:1;fill-rule:nonzero;stroke:none"
         id="path104" /><path
         d="m 3493.29,1324.72 c 28.47,1.06 46.95,-28.89 40.94,-66.22 5.22,3.44 8.67,16.01 24.53,31.19 14.11,12.35 49.96,5.64 44.42,4.65 0.65,-1.19 -18.75,-4.96 -38.13,-25.16 -15.1,-15.3 -35.13,-51.95 -46.05,-38.14 -12.18,16.51 0,31.37 -7.26,64.79 -0.81,3.74 -14.02,21.96 -18.45,28.89"
         style="fill:#6f1812;fill-opacity:1;fill-rule:nonzero;stroke:none"
         id="path106" /></g></g></svg>
