<?xml version="1.0" encoding="UTF-8"?><svg id="Layer_1" xmlns="http://www.w3.org/2000/svg" viewBox="0 0 1080 1080"><defs><style>.cls-1{fill:#f6921e;}.cls-2{fill:#94272d;}.cls-3{fill:none;stroke:#00a89c;stroke-miterlimit:10;stroke-width:20px;}</style></defs><path d="M301.4,687.04l8.1,91.85,36.34,12.11,36.57-12.11,8.1-91.85h-89.11Zm71.52,29.68h-42.65l.95,11.46h40.75l-3.16,34.44-22.72,6.27v.07h-.26l-22.9-6.34-1.39-17.59h11.07l.81,8.84,12.41,3.36,12.46-3.36,1.39-14.43h-38.73l-2.97-33.79h55.95l-1.02,11.07Z"/><path d="M447.78,686.78l8.08,91.58,36.35,12.08,36.35-12.08,8.08-91.58h-88.85Zm72.45,18.51l-1.11,10.94-26.68,11.41-.07,.02h25.8l-2.96,33.92-22.72,6.64-22.86-6.76-1.48-17.1h11.31l.74,8.86,12.17,3.08,12.66-3.56,.86-14.25-38.48-.12v-.02l-.05,.02-.83-10.71,25.94-10.81,1.5-.62h-28.44l-1.34-10.94h56.04Z"/><path d="M686.84,684.87h-81.68c-6.15,0-11.14,4.99-11.14,11.14v81.68c0,6.15,4.99,11.14,11.14,11.14h81.68c6.15,0,11.14-4.99,11.14-11.14v-81.68c0-6.15-4.99-11.14-11.14-11.14Zm-36.25,81.08c0,10.12-5.94,14.74-14.6,14.74-7.82,0-12.35-4.04-14.67-8.93l7.96-4.8c1.53,2.72,2.92,5.01,6.29,5.01s5.24-1.25,5.24-6.15v-33.21h9.77v33.35h0Zm23.11,14.74c-9.07,0-14.94-4.32-17.8-9.98l7.96-4.59c2.09,3.41,4.83,5.94,9.63,5.94,4.04,0,6.64-2.02,6.64-4.83,0-3.34-2.65-4.53-7.12-6.5l-2.44-1.04c-7.05-2.99-11.72-6.78-11.72-14.74,0-7.33,5.59-12.9,14.29-12.9,6.22,0,10.67,2.16,13.88,7.82l-7.61,4.87c-1.67-2.99-3.48-4.18-6.29-4.18s-4.66,1.81-4.66,4.18c0,2.92,1.81,4.11,6.01,5.94l2.44,1.04c8.31,3.55,12.97,7.19,12.97,15.36,0,8.77-6.92,13.6-16.17,13.6h0Z"/><path d="M847.41,714.9c-1.19-.4-2.37-.77-3.56-1.12,.2-.81,.37-1.63,.55-2.44,2.7-13.09,.92-23.62-5.07-27.09-5.78-3.32-15.2,.13-24.74,8.44-.94,.81-1.87,1.67-2.75,2.53-.59-.57-1.21-1.14-1.82-1.69-10-8.88-20.01-12.61-26.01-9.12-5.76,3.34-7.47,13.25-5.05,25.64,.24,1.23,.51,2.44,.81,3.67-1.41,.4-2.79,.83-4.09,1.3-11.73,4.06-20.15,10.48-20.15,17.11s8.96,13.73,21.16,17.91c.99,.33,1.98,.66,2.99,.94-.33,1.32-.62,2.61-.88,3.95-2.31,12.19-.51,21.86,5.25,25.18,5.93,3.43,15.91-.09,25.62-8.59,.77-.68,1.54-1.38,2.31-2.13,.97,.94,1.98,1.85,2.99,2.72,9.4,8.08,18.7,11.36,24.43,8.04,5.93-3.43,7.87-13.82,5.36-26.47-.2-.97-.42-1.96-.66-2.97,.7-.2,1.38-.42,2.07-.64,12.68-4.2,21.86-10.98,21.86-17.95s-8.66-13.12-20.61-17.22h0Zm-29.72-18.65c8.17-7.12,15.8-9.91,19.27-7.91,3.71,2.13,5.14,10.74,2.81,22.06-.15,.75-.31,1.47-.51,2.2-4.88-1.1-9.82-1.89-14.79-2.33-2.86-4.09-5.98-8-9.36-11.67,.86-.81,1.69-1.58,2.57-2.35Zm-25.42,47.28c1.12,1.91,2.26,3.82,3.47,5.69-3.43-.37-6.83-.92-10.19-1.65,.97-3.16,2.17-6.44,3.58-9.78,1.01,1.93,2.04,3.84,3.14,5.73h0Zm-6.66-26.43c3.16-.7,6.52-1.27,10.02-1.71-1.16,1.82-2.31,3.69-3.38,5.58-1.08,1.87-2.13,3.78-3.12,5.71-1.38-3.27-2.55-6.48-3.52-9.58h0Zm6.02,15.14c1.45-3.03,3.03-6,4.7-8.92s3.47-5.76,5.36-8.55c3.3-.24,6.66-.37,10.08-.37s6.81,.13,10.08,.37c1.87,2.77,3.65,5.6,5.34,8.5s3.27,5.87,4.77,8.88c-1.47,3.03-3.05,6.02-4.75,8.96-1.67,2.92-3.45,5.76-5.32,8.57-3.27,.24-6.68,.35-10.13,.35s-6.79-.11-10.02-.31c-1.91-2.79-3.71-5.65-5.4-8.57s-3.25-5.89-4.72-8.92h0Zm39.68,11.25c1.12-1.93,2.17-3.89,3.21-5.87,1.41,3.19,2.64,6.42,3.71,9.73-3.41,.77-6.85,1.36-10.33,1.76,1.19-1.85,2.31-3.73,3.41-5.62h0Zm3.16-16.81c-1.03-1.93-2.09-3.87-3.19-5.76-1.08-1.87-2.2-3.71-3.36-5.54,3.54,.44,6.92,1.03,10.08,1.76-1.01,3.25-2.2,6.42-3.54,9.53Zm-22.65-24.72c2.31,2.5,4.48,5.14,6.5,7.87-4.35-.2-8.72-.2-13.07,0,2.15-2.83,4.37-5.47,6.57-7.87Zm-25.48-13.47c3.69-2.15,11.89,.92,20.52,8.57,.55,.48,1.1,1.01,1.67,1.54-3.41,3.67-6.55,7.58-9.42,11.67-4.97,.44-9.89,1.21-14.76,2.28-.29-1.12-.53-2.26-.77-3.41-2.07-10.63-.7-18.65,2.77-20.65h0Zm-5.38,57.91c-.92-.26-1.82-.55-2.72-.86-4.68-1.47-10-3.8-13.84-6.85-2.22-1.54-3.71-3.91-4.13-6.57,0-4.02,6.94-9.16,16.96-12.65,1.25-.44,2.53-.83,3.8-1.21,1.49,4.77,3.3,9.45,5.38,13.97-2.11,4.59-3.93,9.34-5.45,14.17Zm25.62,21.53c-3.62,3.32-7.82,5.95-12.39,7.76-2.44,1.16-5.25,1.27-7.76,.29-3.49-2.02-4.94-9.78-2.97-20.21,.24-1.23,.51-2.46,.81-3.67,4.92,1.05,9.89,1.78,14.92,2.15,2.9,4.11,6.09,8.04,9.49,11.73-.7,.68-1.41,1.34-2.11,1.96h0Zm5.38-5.34c-2.24-2.42-4.48-5.1-6.66-7.97,2.11,.09,4.28,.13,6.48,.13s4.48-.04,6.68-.15c-2.02,2.79-4.2,5.45-6.5,8Zm28.71,6.59c-.2,2.68-1.52,5.18-3.62,6.88-3.49,2.02-10.94-.62-18.98-7.51-.92-.79-1.85-1.65-2.79-2.53,3.36-3.71,6.46-7.65,9.27-11.78,5.03-.42,10.04-1.19,14.98-2.31,.22,.9,.42,1.8,.59,2.68,1.08,4.75,1.25,9.69,.55,14.57h0Zm4-23.62c-.62,.2-1.23,.4-1.87,.57-1.54-4.79-3.43-9.47-5.6-14.02,2.11-4.48,3.89-9.1,5.38-13.82,1.14,.33,2.24,.68,3.3,1.03,10.24,3.52,17.42,8.74,17.42,12.74,0,4.31-7.67,9.86-18.63,13.49Zm-32.89-3.3c5.56,0,10.06-4.5,10.06-10.06s-4.5-10.06-10.06-10.06-10.06,4.5-10.06,10.06,4.5,10.06,10.06,10.06h0Z"/><g><path class="cls-2" d="M966.09,371.8c-8.06,53.7-89.68,201.88-134.79,204.28-1.68,.59-3.52,.9-5.52,.9-44.86,0-144.01-139.69-155.83-206.92-9.13-51.93,36.37-96.04,81.24-96.04,28.03,0,52.74,16.79,67.34,42.32,14.72-24.55,38.94-40.57,66.33-40.57,44.86,0,89.07,43.81,81.24,96.04Z"/><g><path class="cls-1" d="M295.78,319.48c.02,.49,.03,.99,.03,1.49v200.15c0,1.25-.07,2.47-.22,3.68,.15,1.47,.22,2.96,.22,4.46,0,26.35-22.77,47.71-50.86,47.71s-50.86-21.36-50.86-47.71c0-6.9,1.56-13.46,4.37-19.38-21.11-8.94-35.79-28.86-35.79-51.99,0-14.38,5.67-27.51,15.04-37.54-11.32-10.35-18.35-24.81-18.35-40.81,0-25.62,18.01-47.29,42.81-54.48-.41-2.34-.63-4.75-.63-7.2,0-24.42,21.11-44.22,47.14-44.22s47.14,19.8,47.14,44.22c0,.54,0,1.08-.03,1.61Z"/><path class="cls-1" d="M425.17,420.67c9.37,10.03,15.04,23.16,15.04,37.54,0,23.13-14.69,43.05-35.79,51.99,2.8,5.92,4.37,12.48,4.37,19.38,0,26.35-22.77,47.71-50.86,47.71s-50.86-21.36-50.86-47.71c0-1.51,.07-2.99,.22-4.46-.15-1.21-.22-2.44-.22-3.68v-200.15c0-.5,0-1,.03-1.49-.02-.54-.03-1.07-.03-1.61,0-24.42,21.11-44.22,47.14-44.22s47.14,19.8,47.14,44.22c0,2.45-.22,4.86-.63,7.2,24.79,7.18,42.81,28.86,42.81,54.48,0,16-7.03,30.46-18.35,40.81Z"/></g><g><line class="cls-3" x1="488.05" y1="425.13" x2="623.52" y2="425.94"/><line class="cls-3" x1="555.58" y1="357.59" x2="555.58" y2="493.07"/></g></g></svg>